{"title":"Top Gear Winter Olympics 2008 DVDRip Hr.Janno (Eesti Tõlg","uid":8005033,"size":734432764,"categoryP":"video","categoryS":"movies","magnet":"?xt=urn:btih:648375e4ef9cfc2c3088ed58d572b271c5f9624b&amp;dn=Top+Gear+Winter+Olympics+2008+DVDRip+Hr.Janno+%28Eesti+T%26otilde%3Blg&amp;tr=udp%3A%2F%2Ftracker.openbittorrent.com%3A80&amp;tr=udp%3A%2F%2Fopen.demonii.com%3A1337&amp;tr=udp%3A%2F%2Ftracker.coppersurfer.tk%3A6969&amp;tr=udp%3A%2F%2Fexodus.desync.com%3A6969","seeders":4,"leechers":1,"uploader":"Hr.Janno","files":-1,"time":1357867475,"description":"The boys are having their very own Winter Olympic Games in Norway by using cars for each event. Jeremy and James races each other in the biathlon event using SUVs. Jeremy takes the Volvo XC90 while James chooses the Audi Q7. Richard attempts to see which one can survive cold temperatures, a Citroen C1 or a man (that man would be Richard). In the speed skating event, Jeremy takes the new Jaguar XK and races against a professional speed skater around the ice skating ring. In an attempt to prove to Jeremy that 4 wheel drive cars are better when driving on ice than rear wheel drive cars, James create a course on a frozen lakes and it is a race against the clock to see which car is the fastest around the course. James will prove it by using a Land Rover Discovery while Jeremy takes the Jaguar XK. Richard and James have a game of ice hockey with local rally drivers using the new Suzuki Swift. In addition, Jeremy is the referee for the game. Finally, the boys attempt to turn an old Mini to be capable of launching itself from a ski jump.\n\n\n\nFormat                                   : AVI\nFormat/Info                              : Audio Video Interleave\nFile size                                : 700 MiB\nDuration                                 : 59mn 2s\nOverall bit rate                         : 1 659 Kbps\n\nVideo\nID                                       : 0\nFormat                                   : MPEG-4 Visual\nFormat profile                           : Advanced Simple@L5\nFormat settings, BVOP                    : 1\nFormat settings, QPel                    : No\nFormat settings, GMC                     : No warppoints\nFormat settings, Matrix                  : Custom\nCodec ID                                 : XVID\nCodec ID/Hint                            : XviD\nDuration                                 : 59mn 2s\nBit rate                                 : 1 460 Kbps\nWidth                                    : 608 pixels\nHeight                                   : 352 pixels\nDisplay aspect ratio                     : 1.727\nFrame rate                               : 25.000 fps\nColor space                              : YUV\nChroma subsampling                       : 4:2:0\nBit depth                                : 8 bits\nScan type                                : Progressive\nCompression mode                         : Lossy\nBits/(Pixel*Frame)                       : 0.273\nStream size                              : 616 MiB (88%)\nWriting library                          : XviD 1.1.2 (UTC 2006-11-01)\n\nAudio\nID                                       : 1\nFormat                                   : AC-3\nFormat/Info                              : Audio Coding 3\nMode extension                           : CM (complete main)\nFormat settings, Endianness              : Big\nCodec ID                                 : 2000\nDuration                                 : 59mn 1s\nBit rate mode                            : Constant\nBit rate                                 : 192 Kbps\nChannel(s)                               : 2 channels\nChannel positions                        : Front: L R\nSampling rate                            : 48.0 KHz\nBit depth                                : 16 bits\nCompression mode                         : Lossy\nStream size                              : 81.1 MiB (12%)\nAlignment                                : Split accross interleaves\nInterleave, duration                     : 96 ms (2.40 video frames)\nInterleave, preload duration             : 96 ms\nLanguage                                 : English\nSubtitle                                 : Estonia (Eesti).srt\n","torrent":{"xt":"urn:btih:648375e4ef9cfc2c3088ed58d572b271c5f9624b","amp;dn":"Top+Gear+Winter+Olympics+2008+DVDRip+Hr.Janno+%28Eesti+T%26otilde%3Blg","amp;tr":["udp%3A%2F%2Ftracker.openbittorrent.com%3A80","udp%3A%2F%2Fopen.demonii.com%3A1337","udp%3A%2F%2Ftracker.coppersurfer.tk%3A6969","udp%3A%2F%2Fexodus.desync.com%3A6969"],"infoHash":"648375e4ef9cfc2c3088ed58d572b271c5f9624b","infoHashBuffer":{"type":"Buffer","data":[100,131,117,228,239,156,252,44,48,136,237,88,213,114,178,113,197,249,98,75]},"announce":[],"urlList":[]}}